<svg xmlns="http://www.w3.org/2000/svg" version="1.1" xmlns:xlink="http://www.w3.org/1999/xlink" xmlns:svgjs="http://svgjs.dev/svgjs" width="1000" height="1000" viewBox="0 0 1000 1000"><rect width="1000" height="1000" fill="#ffffff"></rect><g transform="matrix(0.7,0,0,0.7,150,281.25)"><svg viewBox="0 0 512 320" data-background-color="#ebebeb" preserveAspectRatio="xMidYMid meet" height="625" width="1000" xmlns="http://www.w3.org/2000/svg" xmlns:xlink="http://www.w3.org/1999/xlink"><g id="tight-bounds" transform="matrix(1,0,0,1,0,0)"><svg viewBox="0 0 512 320" height="320" width="512"><g><svg></svg></g><g><svg viewBox="0 0 512 320" height="320" width="512"><g><path xmlns="http://www.w3.org/2000/svg" d="M96 160c0-88.366 71.634-160 160-160 88.366 0 160 71.634 160 160 0 88.366-71.634 160-160 160-88.366 0-160-71.634-160-160z" fill="#f55151" fill-rule="nonzero" stroke="none" stroke-width="1" stroke-linecap="butt" stroke-linejoin="miter" stroke-miterlimit="10" stroke-dasharray="" stroke-dashoffset="0" font-family="none" font-weight="none" font-size="none" text-anchor="none" style="mix-blend-mode: normal" data-fill-palette-color="tertiary"></path></g><g transform="matrix(1,0,0,1,192.33312302839119,80)"><svg viewBox="0 0 127.33375394321766 160" height="160" width="127.33375394321766"><g><svg viewBox="0 0 127.33375394321766 160" height="160" width="127.33375394321766"><g><svg viewBox="0 0 127.33375394321766 160" height="160" width="127.33375394321766"><g id="textblocktransform"><svg viewBox="0 0 127.33375394321766 160" height="160" width="127.33375394321766" id="textblock"><g><svg viewBox="0 0 127.33375394321766 160" height="160" width="127.33375394321766"><rect width="127.33375394321766" height="160" x="0" y="0" opacity="1" fill="#f55151" data-fill-palette-color="tertiary"></rect><g transform="matrix(1,0,0,1,15.280000000000001,15.280000000000001)"><svg width="96.77375394321766" viewBox="3.5999999046325684 -31.700000762939453 23.69999885559082 31.700000762939453" height="129.44" data-palette-color="#272727"><path d="M27.3 0L3.6 0 3.6-6.9 11.9-6.9 11.9-23.3 4.9-23.3 4.9-28.6Q6.6-28.85 7.9-29.15 9.2-29.45 10.28-29.83 11.35-30.2 12.28-30.65 13.2-31.1 14.2-31.7L14.2-31.7 20.5-31.7 20.5-6.9 27.3-6.9 27.3 0Z" opacity="1" transform="matrix(1,0,0,1,0,0)" fill="#272727" class="undefined-text-0" data-fill-palette-color="quaternary" id="text-0"></path></svg></g></svg></g></svg></g></svg></g></svg></g></svg></g></svg></g><defs></defs></svg><rect width="512" height="320" fill="none" stroke="none" visibility="hidden"></rect></g></svg></g></svg>